<?xml version="1.0" standalone="no"?>
<!DOCTYPE svg PUBLIC "-//W3C//DTD SVG 20010904//EN"
 "http://www.w3.org/TR/2001/REC-SVG-20010904/DTD/svg10.dtd">
<svg version="1.0" xmlns="http://www.w3.org/2000/svg"
 width="200.000000pt" height="200.000000pt" viewBox="0 0 200.000000 200.000000"
 preserveAspectRatio="xMidYMid meet">

<g transform="translate(0.000000,200.000000) scale(0.100000,-0.100000)"
fill="#000000" stroke="none">
<path d="M750 1815 l0 -65 -65 0 -65 0 0 -60 0 -60 -60 0 -60 0 0 -65 0 -65
-66 0 -67 0 4 -187 4 -188 -62 -3 -63 -3 0 -119 0 -120 -59 0 c-33 0 -63 -5
-66 -11 -4 -6 -4 -118 0 -250 l8 -239 58 0 59 0 0 -65 0 -65 65 0 65 0 0 -60
0 -60 435 0 435 0 0 60 0 60 125 0 125 0 0 65 0 65 60 0 60 0 0 60 0 60 65 0
65 0 0 125 0 125 65 0 65 0 0 250 0 250 -65 0 -65 0 0 125 0 125 -60 0 -59 0
-3 63 -3 62 -62 3 -63 3 0 59 0 60 -60 0 -59 0 -3 63 -3 62 -312 3 -313 2 0
-65z m625 -190 l7 -125 59 0 59 0 0 -125 0 -125 65 0 65 0 0 -125 0 -125 -65
0 -65 0 0 -125 0 -125 -60 0 -60 0 0 -65 0 -65 -125 0 -125 0 0 -60 0 -60
-380 0 -380 0 0 60 0 60 -60 0 -60 0 0 125 0 124 63 3 62 3 3 123 3 122 59 0
60 0 0 190 0 190 65 0 65 0 0 60 0 60 60 0 60 0 0 65 0 65 309 0 309 0 7 -125z"/>
</g>
</svg>
